<svg width="24" height="24" viewBox="0 0 24 24" fill="none" xmlns="http://www.w3.org/2000/svg">
<path d="M10.6 15.508L16.996 9.112L16.289 8.404L10.6 14.092L7.75 11.242L7.042 11.95L10.6 15.508ZM5.616 20C5.15533 20 4.771 19.846 4.463 19.538C4.155 19.23 4.00067 18.8453 4 18.384V5.616C4 5.15533 4.15433 4.771 4.463 4.463C4.77167 4.155 5.156 4.00067 5.616 4H18.385C18.845 4 19.2293 4.15433 19.538 4.463C19.8467 4.77167 20.0007 5.156 20 5.616V18.385C20 18.845 19.846 19.2293 19.538 19.538C19.23 19.8467 18.8453 20.0007 18.384 20H5.616Z" fill="#78A1B5"/>
</svg>
