<svg width="230" height="57" viewBox="0 0 230 57" fill="none" xmlns="http://www.w3.org/2000/svg">
<rect width="230" height="56.25" rx="12" fill="#FEE500"/>
<g clip-path="url(#clip0_399_1758)">
<path opacity="0.902" fill-rule="evenodd" clip-rule="evenodd" d="M45.5 18.6771C39.6125 18.6771 34.25 23.1172 34.25 26.8737C34.25 29.6883 36.1975 32.1711 39.1637 33.6464L37.9163 37.9458C37.805 38.327 38.2663 38.6296 38.62 38.4103L44.0913 35.0033C44.5525 35.0456 45.0225 35.0702 45.5 35.0702C51.7125 35.0702 56.75 31.4006 56.75 26.8737C56.75 23.1172 51.7125 18.6771 45.5 18.6771Z" fill="black"/>
</g>
<path d="M74.494 21.281C74.4833 22.9663 74.2113 24.4437 73.678 25.713C73.1447 26.9823 72.4407 28.0277 71.566 28.849C70.702 29.6703 69.598 30.433 68.254 31.137L67.582 30.321C70.11 29.169 71.8113 27.5637 72.686 25.505L67.838 26.033L67.582 25.073L73.006 24.657C73.262 23.793 73.3953 22.961 73.406 22.161H68.318V21.281H74.494ZM78.046 19.761V25.617H80.398V26.481H78.046V33.745H77.022V19.761H78.046ZM88.3378 21.281C88.3271 22.9663 88.0551 24.4437 87.5218 25.713C86.9884 26.9823 86.2844 28.0277 85.4098 28.849C84.5458 29.6703 83.4418 30.433 82.0978 31.137L81.4258 30.321C83.9538 29.169 85.6551 27.5637 86.5298 25.505L81.6818 26.033L81.4258 25.073L86.8498 24.657C87.1058 23.793 87.2391 22.961 87.2498 22.161H82.1618V21.281H88.3378ZM91.8898 19.761V25.617H94.2418V26.481H91.8898V33.745H90.8658V19.761H91.8898ZM106.23 24.433C106.23 25.4783 105.83 26.3317 105.03 26.993C104.24 27.6437 103.179 28.0063 101.846 28.081V30.993H107.67V31.873H95.0455V30.993H100.822V28.081C99.4988 28.0063 98.4428 27.6437 97.6535 26.993C96.8642 26.3317 96.4695 25.4783 96.4695 24.433C96.4695 23.313 96.9122 22.417 97.7975 21.745C98.6935 21.073 99.8722 20.737 101.334 20.737C102.816 20.737 104 21.073 104.886 21.745C105.782 22.417 106.23 23.313 106.23 24.433ZM105.222 24.433C105.222 23.601 104.864 22.929 104.15 22.417C103.446 21.905 102.507 21.649 101.334 21.649C100.182 21.649 99.2482 21.905 98.5335 22.417C97.8295 22.929 97.4775 23.601 97.4775 24.433C97.4775 25.2543 97.8295 25.921 98.5335 26.433C99.2482 26.945 100.182 27.201 101.334 27.201C102.496 27.201 103.435 26.945 104.15 26.433C104.864 25.921 105.222 25.2543 105.222 24.433ZM121.513 31.953H108.889V31.073H114.665V28.481H110.569V24.161H118.809V21.793H110.569V20.929H119.833V25.025H111.593V27.617H120.201V28.481H115.689V31.073H121.513V31.953ZM139.56 31.953H126.936V31.073H132.712V28.481H128.616V24.161H136.856V21.793H128.616V20.929H137.88V25.025H129.64V27.617H138.248V28.481H133.736V31.073H139.56V31.953ZM153.404 31.649H140.78V30.769H153.404V31.649ZM151.516 21.393C151.516 22.7583 151.457 24.2463 151.34 25.857C151.223 27.4677 151.052 28.6997 150.828 29.553L149.804 29.409C149.996 28.7797 150.156 27.6703 150.284 26.081C150.423 24.4917 150.471 23.217 150.428 22.257H142.092V21.393H151.516ZM166.016 29.921H164.992V19.761H166.016V29.921ZM166.384 33.249H156.944V28.993H157.968V32.385H166.384V33.249ZM156.032 21.681C156.736 21.0517 157.589 20.737 158.592 20.737C159.594 20.737 160.442 21.0463 161.136 21.665C161.84 22.2837 162.192 23.089 162.192 24.081C162.192 25.0837 161.84 25.8997 161.136 26.529C160.442 27.1477 159.594 27.457 158.592 27.457C157.589 27.457 156.736 27.1477 156.032 26.529C155.328 25.9103 154.976 25.105 154.976 24.113C154.976 23.1103 155.328 22.2997 156.032 21.681ZM158.592 21.649C157.856 21.649 157.242 21.8783 156.752 22.337C156.272 22.785 156.032 23.3663 156.032 24.081C156.032 24.8063 156.277 25.4037 156.768 25.873C157.258 26.3317 157.866 26.561 158.592 26.561C159.36 26.561 159.978 26.337 160.448 25.889C160.917 25.441 161.152 24.849 161.152 24.113C161.152 23.377 160.917 22.785 160.448 22.337C159.978 21.8783 159.36 21.649 158.592 21.649ZM181.491 26.593H179.155V33.745H178.131V19.761H179.155V25.713H181.491V26.593ZM174.483 21.697H170.435V20.785H174.483V21.697ZM176.595 24.017H168.419V23.153H176.595V24.017ZM175.843 27.889C175.843 28.6997 175.545 29.377 174.947 29.921C174.35 30.4543 173.577 30.721 172.627 30.721C171.678 30.721 170.899 30.4543 170.291 29.921C169.694 29.377 169.395 28.6997 169.395 27.889C169.395 27.0677 169.694 26.385 170.291 25.841C170.889 25.297 171.667 25.025 172.627 25.025C173.577 25.025 174.35 25.297 174.947 25.841C175.545 26.385 175.843 27.0677 175.843 27.889ZM174.195 29.313C174.611 28.9397 174.819 28.465 174.819 27.889C174.819 27.313 174.611 26.8383 174.195 26.465C173.779 26.0917 173.257 25.905 172.627 25.905C171.998 25.905 171.475 26.0917 171.059 26.465C170.643 26.8383 170.435 27.313 170.435 27.889C170.435 28.465 170.643 28.9397 171.059 29.313C171.475 29.6863 171.998 29.873 172.627 29.873C173.257 29.873 173.779 29.6863 174.195 29.313ZM193.687 33.745H192.663V19.761H193.687V33.745ZM189.511 21.281C189.468 23.4463 188.855 25.3343 187.671 26.945C186.498 28.545 184.967 29.8517 183.079 30.865L182.455 30.049C184.226 29.1637 185.623 28.033 186.647 26.657C187.682 25.281 188.263 23.7823 188.391 22.161H183.047V21.281H189.511Z" fill="black"/>
<defs>
<clipPath id="clip0_399_1758">
<rect width="22.5" height="21.11" fill="white" transform="translate(34.25 17.57)"/>
</clipPath>
</defs>
</svg>
