<svg width="66" height="66" viewBox="0 0 66 66" fill="none" xmlns="http://www.w3.org/2000/svg">
<g filter="url(#filter0_b_154_5471)">
<circle cx="33" cy="33" r="33" fill="url(#paint0_linear_154_5471)"/>
</g>
<circle cx="33" cy="33" r="30" fill="#C4D9E2"/>
<path d="M32.9813 16.4972C32.4988 16.4972 32.0162 16.6053 31.6424 16.8216L19.7086 23.7247C18.961 24.1572 18.961 24.8411 19.7086 25.2736L31.6424 32.1767C32.3901 32.6092 33.5724 32.6092 34.3199 32.1767L46.2538 25.2736C47.0014 24.8412 47.0014 24.1572 46.2538 23.7248L34.3199 16.8216C33.9461 16.6052 33.4637 16.4972 32.9813 16.4972ZM32.9169 20.6464C33.6211 20.654 34.2541 20.8153 34.8161 21.1302C35.2005 21.3456 35.4522 21.5914 35.5713 21.8675C35.6864 22.1415 35.6931 22.5026 35.5916 22.9507L35.4666 23.3965C35.3838 23.7155 35.3666 23.9449 35.415 24.0848C35.4595 24.2225 35.57 24.3409 35.7464 24.4398L36.0113 24.5881L33.4148 26.0427L33.1263 25.8813C32.8046 25.7011 32.5993 25.4975 32.5104 25.2703C32.4176 25.041 32.4331 24.6763 32.5568 24.1762L32.6759 23.7271C32.7451 23.4597 32.7519 23.2404 32.6962 23.0695C32.6451 22.8957 32.5294 22.7583 32.349 22.6572C32.0744 22.5033 31.7455 22.4481 31.3623 22.4913C30.9752 22.5325 30.5754 22.6685 30.1631 22.8995C29.7747 23.1171 29.4218 23.3895 29.1045 23.7167C28.7833 24.0419 28.5076 24.414 28.2774 24.833L26.4297 23.7977C26.8452 23.3805 27.2534 23.0156 27.6544 22.7029C28.0554 22.3904 28.4789 22.1091 28.9249 21.8591C30.0949 21.2036 31.1829 20.8139 32.1889 20.6898C32.4304 20.6589 32.6736 20.6444 32.9171 20.6463L32.9169 20.6464ZM36.8823 25.0761L38.9772 26.2498L36.3807 27.7045L34.2857 26.5309L36.8823 25.0761ZM18.9117 26.5813C18.4623 26.5691 18.1567 26.92 18.1567 27.5406V39.8606C18.1567 40.7241 18.7481 41.7484 19.4958 42.1802L30.9747 48.8089C31.7224 49.2406 32.3138 48.8992 32.3138 48.0359V35.7156C32.3138 34.8522 31.7224 33.8281 30.9747 33.3963L19.4958 26.7676C19.2856 26.6461 19.0876 26.5858 18.9117 26.5811V26.5813ZM47.0971 26.5814C46.9213 26.5861 46.7235 26.6463 46.5132 26.7677L35.0339 33.3964C34.2863 33.8282 33.6949 34.8525 33.6949 35.7159V48.0363C33.6949 48.8995 34.2863 49.2408 35.0339 48.8089L46.5133 42.1805C47.261 41.7487 47.8521 40.7245 47.8521 39.8611V27.5408C47.8521 26.9203 47.5467 26.5695 47.0971 26.5816V26.5814ZM21.9764 31.562C22.4884 31.6688 22.956 31.7994 23.3791 31.9537C23.8032 32.1085 24.2131 32.3 24.6041 32.5259C25.6364 33.122 26.4233 33.8013 26.9649 34.5636C27.5064 35.3214 27.7772 36.1297 27.7772 36.9886C27.7772 37.4292 27.6947 37.7772 27.5297 38.0327C27.3647 38.2836 27.0833 38.4944 26.6856 38.665L26.2794 38.815C25.9917 38.9277 25.8034 39.0438 25.7146 39.1634C25.6257 39.2784 25.5813 39.437 25.5813 39.6394V39.9429L23.2903 38.62V38.2895C23.2903 37.9208 23.3601 37.6351 23.4997 37.4325C23.6393 37.2254 23.9334 37.0309 24.3819 36.8491L24.7881 36.6924C25.0293 36.5979 25.2049 36.479 25.3149 36.3356C25.429 36.1948 25.4861 36.0209 25.4861 35.8141C25.4861 35.4994 25.3846 35.1958 25.1814 34.9031C24.9784 34.606 24.6949 34.3523 24.331 34.1422C23.9883 33.9444 23.6181 33.8071 23.2203 33.7303C22.8226 33.6491 22.408 33.6323 21.9764 33.6799V31.562ZM43.0342 32.2345C43.1531 32.2345 43.2633 32.2473 43.3649 32.273C43.9064 32.4054 44.1772 32.9011 44.1772 33.76C44.1772 34.2006 44.0947 34.6439 43.9297 35.0899C43.7647 35.5314 43.4834 36.067 43.0856 36.6968L42.6794 37.3159C42.3917 37.7608 42.2034 38.0943 42.1145 38.3164C42.0257 38.534 41.9813 38.744 41.9813 38.9463V39.2498L39.6903 40.5727V40.2422C39.6903 39.8734 39.7601 39.5071 39.8997 39.1432C40.0394 38.7748 40.3335 38.2409 40.7819 37.5413L41.1881 36.9156C41.4293 36.5424 41.6049 36.2207 41.7149 35.9504C41.829 35.6776 41.8861 35.4377 41.8861 35.2309C41.8861 34.9162 41.7846 34.7298 41.5816 34.6716C41.3785 34.6091 41.0949 34.6828 40.731 34.8927C40.3883 35.0907 40.0181 35.3809 39.6205 35.7634C39.2228 36.1415 38.8082 36.6035 38.3766 37.1494V35.0314C38.8886 34.547 39.356 34.1377 39.7789 33.8034C40.2022 33.4692 40.6105 33.1886 41.0039 32.9615C41.8428 32.4771 42.5196 32.2347 43.0344 32.2344L43.0342 32.2345ZM23.2903 39.6184L25.5813 40.9411V43.3423L23.2903 42.0197V39.6185L23.2903 39.6184ZM41.9813 40.2481V42.6493L39.6903 43.972V41.5709L41.9813 40.2481Z" fill="#2A2A2A"/>
<defs>
<filter id="filter0_b_154_5471" x="-10" y="-10" width="86" height="86" filterUnits="userSpaceOnUse" color-interpolation-filters="sRGB">
<feFlood flood-opacity="0" result="BackgroundImageFix"/>
<feGaussianBlur in="BackgroundImageFix" stdDeviation="5"/>
<feComposite in2="SourceAlpha" operator="in" result="effect1_backgroundBlur_154_5471"/>
<feBlend mode="normal" in="SourceGraphic" in2="effect1_backgroundBlur_154_5471" result="shape"/>
</filter>
<linearGradient id="paint0_linear_154_5471" x1="33" y1="0" x2="33" y2="66" gradientUnits="userSpaceOnUse">
<stop stop-color="white" stop-opacity="0.2"/>
<stop offset="1" stop-color="white" stop-opacity="0.8"/>
</linearGradient>
</defs>
</svg>
