<svg width="244" height="36" viewBox="0 0 244 36" fill="none" xmlns="http://www.w3.org/2000/svg">
<g filter="url(#filter0_dd_240_7240)">
<rect x="2" y="1" width="240" height="32" rx="15" fill="white" shape-rendering="crispEdges"/>
<path fill-rule="evenodd" clip-rule="evenodd" d="M68.14 17.2045C68.14 16.5664 68.0827 15.9527 67.9764 15.3636H59.5V18.845H64.3436C64.135 19.97 63.5009 20.9232 62.5477 21.5614V23.8195H65.4564C67.1582 22.2527 68.14 19.9454 68.14 17.2045Z" fill="#4285F4"/>
<path fill-rule="evenodd" clip-rule="evenodd" d="M59.5 26C61.93 26 63.9673 25.1941 65.4564 23.8196L62.5477 21.5614C61.7418 22.1014 60.7109 22.4205 59.5 22.4205C57.1559 22.4205 55.1718 20.8373 54.4641 18.71H51.4573V21.0418C52.9382 23.9832 55.9818 26 59.5 26Z" fill="#34A853"/>
<path fill-rule="evenodd" clip-rule="evenodd" d="M54.4641 18.71C54.2841 18.17 54.1818 17.5932 54.1818 17C54.1818 16.4068 54.2841 15.83 54.4641 15.29V12.9582H51.4573C50.8477 14.1732 50.5 15.5477 50.5 17C50.5 18.4523 50.8477 19.8268 51.4573 21.0418L54.4641 18.71Z" fill="#FBBC05"/>
<path fill-rule="evenodd" clip-rule="evenodd" d="M59.5 11.5795C60.8214 11.5795 62.0077 12.0336 62.9405 12.9255L65.5218 10.3441C63.9632 8.89182 61.9259 8 59.5 8C55.9818 8 52.9382 10.0168 51.4573 12.9582L54.4641 15.29C55.1718 13.1627 57.1559 11.5795 59.5 11.5795Z" fill="#EA4335"/>
<path d="M89.94 12.192C89.94 14.6027 89.7587 16.64 89.396 18.304H91.732V19.168H85.924V25.12H84.9V19.168H79.108V18.304H88.356C88.708 16.9813 88.884 15.2373 88.884 13.072H80.82V12.192H89.94ZM104.424 24.928H94.4718V21.536H102.856V19.92H94.4398V19.072H103.88V22.352H95.4958V24.08H104.424V24.928ZM103.864 11.856C103.864 13.6267 103.725 15.1467 103.448 16.416H105.576V17.28H92.9518V16.416H102.392C102.658 15.3493 102.792 14.1227 102.792 12.736H94.6478V11.856H103.864ZM119.42 23.328H106.796V22.448H112.572V19.856H108.476V15.536H116.716V13.168H108.476V12.304H117.74V16.4H109.5V18.992H118.108V19.856H113.596V22.448H119.42V23.328ZM137.466 23.328H124.842V22.448H130.618V19.856H126.522V15.536H134.762V13.168H126.522V12.304H135.786V16.4H127.546V18.992H136.154V19.856H131.642V22.448H137.466V23.328ZM151.31 23.024H138.686V22.144H151.31V23.024ZM149.422 12.768C149.422 14.1333 149.363 15.6213 149.246 17.232C149.129 18.8427 148.958 20.0747 148.734 20.928L147.71 20.784C147.902 20.1547 148.062 19.0453 148.19 17.456C148.329 15.8667 148.377 14.592 148.334 13.632H139.998V12.768H149.422ZM163.922 21.296H162.898V11.136H163.922V21.296ZM164.29 24.624H154.85V20.368H155.874V23.76H164.29V24.624ZM153.938 13.056C154.642 12.4267 155.495 12.112 156.498 12.112C157.501 12.112 158.349 12.4213 159.042 13.04C159.746 13.6587 160.098 14.464 160.098 15.456C160.098 16.4587 159.746 17.2747 159.042 17.904C158.349 18.5227 157.501 18.832 156.498 18.832C155.495 18.832 154.642 18.5227 153.938 17.904C153.234 17.2853 152.882 16.48 152.882 15.488C152.882 14.4853 153.234 13.6747 153.938 13.056ZM156.498 13.024C155.762 13.024 155.149 13.2533 154.658 13.712C154.178 14.16 153.938 14.7413 153.938 15.456C153.938 16.1813 154.183 16.7787 154.674 17.248C155.165 17.7067 155.773 17.936 156.498 17.936C157.266 17.936 157.885 17.712 158.354 17.264C158.823 16.816 159.058 16.224 159.058 15.488C159.058 14.752 158.823 14.16 158.354 13.712C157.885 13.2533 157.266 13.024 156.498 13.024ZM179.398 17.968H177.062V25.12H176.038V11.136H177.062V17.088H179.398V17.968ZM172.39 13.072H168.342V12.16H172.39V13.072ZM174.502 15.392H166.326V14.528H174.502V15.392ZM173.75 19.264C173.75 20.0747 173.451 20.752 172.854 21.296C172.256 21.8293 171.483 22.096 170.534 22.096C169.584 22.096 168.806 21.8293 168.198 21.296C167.6 20.752 167.302 20.0747 167.302 19.264C167.302 18.4427 167.6 17.76 168.198 17.216C168.795 16.672 169.574 16.4 170.534 16.4C171.483 16.4 172.256 16.672 172.854 17.216C173.451 17.76 173.75 18.4427 173.75 19.264ZM172.102 20.688C172.518 20.3147 172.726 19.84 172.726 19.264C172.726 18.688 172.518 18.2133 172.102 17.84C171.686 17.4667 171.163 17.28 170.534 17.28C169.904 17.28 169.382 17.4667 168.966 17.84C168.55 18.2133 168.342 18.688 168.342 19.264C168.342 19.84 168.55 20.3147 168.966 20.688C169.382 21.0613 169.904 21.248 170.534 21.248C171.163 21.248 171.686 21.0613 172.102 20.688ZM191.593 25.12H190.569V11.136H191.593V25.12ZM187.417 12.656C187.375 14.8213 186.761 16.7093 185.577 18.32C184.404 19.92 182.873 21.2267 180.985 22.24L180.361 21.424C182.132 20.5387 183.529 19.408 184.553 18.032C185.588 16.656 186.169 15.1573 186.297 13.536H180.953V12.656H187.417Z" fill="black" fill-opacity="0.54"/>
</g>
<defs>
<filter id="filter0_dd_240_7240" x="0" y="0" width="244" height="36" filterUnits="userSpaceOnUse" color-interpolation-filters="sRGB">
<feFlood flood-opacity="0" result="BackgroundImageFix"/>
<feColorMatrix in="SourceAlpha" type="matrix" values="0 0 0 0 0 0 0 0 0 0 0 0 0 0 0 0 0 0 127 0" result="hardAlpha"/>
<feOffset dy="1"/>
<feGaussianBlur stdDeviation="1"/>
<feColorMatrix type="matrix" values="0 0 0 0 0 0 0 0 0 0 0 0 0 0 0 0 0 0 0.25 0"/>
<feBlend mode="normal" in2="BackgroundImageFix" result="effect1_dropShadow_240_7240"/>
<feColorMatrix in="SourceAlpha" type="matrix" values="0 0 0 0 0 0 0 0 0 0 0 0 0 0 0 0 0 0 127 0" result="hardAlpha"/>
<feOffset/>
<feComposite in2="hardAlpha" operator="out"/>
<feColorMatrix type="matrix" values="0 0 0 0 0 0 0 0 0 0 0 0 0 0 0 0 0 0 0.08 0"/>
<feBlend mode="normal" in2="effect1_dropShadow_240_7240" result="effect2_dropShadow_240_7240"/>
<feBlend mode="normal" in="SourceGraphic" in2="effect2_dropShadow_240_7240" result="shape"/>
</filter>
</defs>
</svg>
