<svg width="20" height="21" viewBox="0 0 20 21" fill="none" xmlns="http://www.w3.org/2000/svg">
<g id="simple-line-icons:check" clip-path="url(#clip0_359_1867)">
<path id="Vector" d="M10 0.0131226C4.47719 0.0131226 0 4.49031 0 10.0131C0 15.5362 4.47719 20.0131 10 20.0131C15.5231 20.0131 20 15.5362 20 10.0131C20 4.49031 15.5231 0.0131226 10 0.0131226ZM10 18.7828C5.17531 18.7828 1.25 14.8378 1.25 10.0131C1.25 5.1884 5.17531 1.26308 10 1.26308C14.8247 1.26308 18.75 5.18842 18.75 10.0131C18.75 14.8378 14.8247 18.7828 10 18.7828ZM13.9909 6.35406L8.12373 12.2581L5.48154 9.61594C5.23748 9.37187 4.84186 9.37187 4.59748 9.61594C4.35342 9.86 4.35342 10.2556 4.59748 10.4997L7.69092 13.5934C7.93498 13.8372 8.33061 13.8372 8.57498 13.5934C8.60311 13.5653 8.62719 13.5347 8.64906 13.5028L14.8753 7.2381C15.1191 6.99404 15.1191 6.59842 14.8753 6.35406C14.6309 6.11 14.2353 6.11 13.9909 6.35406Z" fill="white"/>
</g>
<defs>
<clipPath id="clip0_359_1867">
<rect width="20" height="20" fill="white" transform="translate(0 0.0131226)"/>
</clipPath>
</defs>
</svg>
