<svg width="20" height="21" viewBox="0 0 20 21" fill="none" xmlns="http://www.w3.org/2000/svg">
<path id="Vector" d="M10 0.0393982C4.48 0.0393982 0 4.5194 0 10.0394C0 15.5594 4.48 20.0394 10 20.0394C15.52 20.0394 20 15.5594 20 10.0394C20 4.5194 15.52 0.0393982 10 0.0393982ZM7.29 14.3294L3.7 10.7394C3.60742 10.6468 3.53398 10.5369 3.48387 10.4159C3.43377 10.295 3.40798 10.1653 3.40798 10.0344C3.40798 9.90347 3.43377 9.77382 3.48387 9.65285C3.53398 9.53189 3.60742 9.42198 3.7 9.3294C3.79258 9.23682 3.90249 9.16338 4.02346 9.11327C4.14442 9.06317 4.27407 9.03738 4.405 9.03738C4.53593 9.03738 4.66558 9.06317 4.78654 9.11327C4.90751 9.16338 5.01742 9.23682 5.11 9.3294L8 12.2094L14.88 5.3294C15.067 5.14242 15.3206 5.03738 15.585 5.03738C15.8494 5.03738 16.103 5.14242 16.29 5.3294C16.477 5.51638 16.582 5.76997 16.582 6.0344C16.582 6.29882 16.477 6.55242 16.29 6.7394L8.7 14.3294C8.60749 14.4221 8.4976 14.4957 8.37662 14.5458C8.25565 14.596 8.12597 14.6218 7.995 14.6218C7.86403 14.6218 7.73435 14.596 7.61338 14.5458C7.4924 14.4957 7.38251 14.4221 7.29 14.3294Z" fill="#C4D9E2"/>
</svg>
