<svg width="240" height="32" viewBox="0 0 240 32" fill="none" xmlns="http://www.w3.org/2000/svg">
<rect width="240" height="32" rx="15" fill="#FEE500"/>
<g clip-path="url(#clip0_240_7242)">
<path opacity="0.902" fill-rule="evenodd" clip-rule="evenodd" d="M50.5 7.944C45.79 7.944 41.5 11.73 41.5 14.933C41.5 17.333 43.058 19.45 45.431 20.708L44.433 24.374C44.344 24.699 44.713 24.957 44.996 24.77L49.373 21.865C49.742 21.901 50.118 21.922 50.5 21.922C55.47 21.922 59.5 18.793 59.5 14.933C59.5 11.73 55.47 7.944 50.5 7.944Z" fill="black"/>
</g>
<path d="M77.244 11.656C77.2333 13.3413 76.9613 14.8187 76.428 16.088C75.8947 17.3573 75.1907 18.4027 74.316 19.224C73.452 20.0453 72.348 20.808 71.004 21.512L70.332 20.696C72.86 19.544 74.5613 17.9387 75.436 15.88L70.588 16.408L70.332 15.448L75.756 15.032C76.012 14.168 76.1453 13.336 76.156 12.536H71.068V11.656H77.244ZM80.796 10.136V15.992H83.148V16.856H80.796V24.12H79.772V10.136H80.796ZM91.0878 11.656C91.0771 13.3413 90.8051 14.8187 90.2718 16.088C89.7384 17.3573 89.0344 18.4027 88.1598 19.224C87.2958 20.0453 86.1918 20.808 84.8478 21.512L84.1758 20.696C86.7038 19.544 88.4051 17.9387 89.2798 15.88L84.4318 16.408L84.1758 15.448L89.5998 15.032C89.8558 14.168 89.9891 13.336 89.9998 12.536H84.9118V11.656H91.0878ZM94.6398 10.136V15.992H96.9918V16.856H94.6398V24.12H93.6158V10.136H94.6398ZM108.98 14.808C108.98 15.8533 108.58 16.7067 107.78 17.368C106.99 18.0187 105.929 18.3813 104.596 18.456V21.368H110.42V22.248H97.7955V21.368H103.572V18.456C102.249 18.3813 101.193 18.0187 100.404 17.368C99.6142 16.7067 99.2195 15.8533 99.2195 14.808C99.2195 13.688 99.6622 12.792 100.548 12.12C101.444 11.448 102.622 11.112 104.084 11.112C105.566 11.112 106.75 11.448 107.636 12.12C108.532 12.792 108.98 13.688 108.98 14.808ZM107.972 14.808C107.972 13.976 107.614 13.304 106.9 12.792C106.196 12.28 105.257 12.024 104.084 12.024C102.932 12.024 101.998 12.28 101.284 12.792C100.58 13.304 100.228 13.976 100.228 14.808C100.228 15.6293 100.58 16.296 101.284 16.808C101.998 17.32 102.932 17.576 104.084 17.576C105.246 17.576 106.185 17.32 106.9 16.808C107.614 16.296 107.972 15.6293 107.972 14.808ZM124.263 22.328H111.639V21.448H117.415V18.856H113.319V14.536H121.559V12.168H113.319V11.304H122.583V15.4H114.343V17.992H122.951V18.856H118.439V21.448H124.263V22.328ZM142.31 22.328H129.686V21.448H135.462V18.856H131.366V14.536H139.606V12.168H131.366V11.304H140.63V15.4H132.39V17.992H140.998V18.856H136.486V21.448H142.31V22.328ZM156.154 22.024H143.53V21.144H156.154V22.024ZM154.266 11.768C154.266 13.1333 154.207 14.6213 154.09 16.232C153.973 17.8427 153.802 19.0747 153.578 19.928L152.554 19.784C152.746 19.1547 152.906 18.0453 153.034 16.456C153.173 14.8667 153.221 13.592 153.178 12.632H144.842V11.768H154.266ZM168.766 20.296H167.742V10.136H168.766V20.296ZM169.134 23.624H159.694V19.368H160.718V22.76H169.134V23.624ZM158.782 12.056C159.486 11.4267 160.339 11.112 161.342 11.112C162.344 11.112 163.192 11.4213 163.886 12.04C164.59 12.6587 164.942 13.464 164.942 14.456C164.942 15.4587 164.59 16.2747 163.886 16.904C163.192 17.5227 162.344 17.832 161.342 17.832C160.339 17.832 159.486 17.5227 158.782 16.904C158.078 16.2853 157.726 15.48 157.726 14.488C157.726 13.4853 158.078 12.6747 158.782 12.056ZM161.342 12.024C160.606 12.024 159.992 12.2533 159.502 12.712C159.022 13.16 158.782 13.7413 158.782 14.456C158.782 15.1813 159.027 15.7787 159.518 16.248C160.008 16.7067 160.616 16.936 161.342 16.936C162.11 16.936 162.728 16.712 163.198 16.264C163.667 15.816 163.902 15.224 163.902 14.488C163.902 13.752 163.667 13.16 163.198 12.712C162.728 12.2533 162.11 12.024 161.342 12.024ZM184.241 16.968H181.905V24.12H180.881V10.136H181.905V16.088H184.241V16.968ZM177.233 12.072H173.185V11.16H177.233V12.072ZM179.345 14.392H171.169V13.528H179.345V14.392ZM178.593 18.264C178.593 19.0747 178.295 19.752 177.697 20.296C177.1 20.8293 176.327 21.096 175.377 21.096C174.428 21.096 173.649 20.8293 173.041 20.296C172.444 19.752 172.145 19.0747 172.145 18.264C172.145 17.4427 172.444 16.76 173.041 16.216C173.639 15.672 174.417 15.4 175.377 15.4C176.327 15.4 177.1 15.672 177.697 16.216C178.295 16.76 178.593 17.4427 178.593 18.264ZM176.945 19.688C177.361 19.3147 177.569 18.84 177.569 18.264C177.569 17.688 177.361 17.2133 176.945 16.84C176.529 16.4667 176.007 16.28 175.377 16.28C174.748 16.28 174.225 16.4667 173.809 16.84C173.393 17.2133 173.185 17.688 173.185 18.264C173.185 18.84 173.393 19.3147 173.809 19.688C174.225 20.0613 174.748 20.248 175.377 20.248C176.007 20.248 176.529 20.0613 176.945 19.688ZM196.437 24.12H195.413V10.136H196.437V24.12ZM192.261 11.656C192.218 13.8213 191.605 15.7093 190.421 17.32C189.248 18.92 187.717 20.2267 185.829 21.24L185.205 20.424C186.976 19.5387 188.373 18.408 189.397 17.032C190.432 15.656 191.013 14.1573 191.141 12.536H185.797V11.656H192.261Z" fill="black"/>
<defs>
<clipPath id="clip0_240_7242">
<rect width="18" height="18" fill="white" transform="translate(41.5 7)"/>
</clipPath>
</defs>
</svg>
