<svg width="20" height="20" viewBox="0 0 20 20" fill="none" xmlns="http://www.w3.org/2000/svg">
<path id="Vector" d="M4.44444 20V17.7778H8.88889V14.3333C7.98148 14.1296 7.17148 13.7456 6.45889 13.1811C5.7463 12.6167 5.22296 11.9081 4.88889 11.0556C3.5 10.8889 2.33815 10.2826 1.40333 9.23667C0.468518 8.19074 0.000740741 6.9637 0 5.55556V4.44444C0 3.83333 0.217778 3.31037 0.653333 2.87556C1.08889 2.44074 1.61185 2.22296 2.22222 2.22222H4.44444V0H15.5556V2.22222H17.7778C18.3889 2.22222 18.9122 2.44 19.3478 2.87556C19.7833 3.31111 20.0007 3.83407 20 4.44444V5.55556C20 6.96296 19.5322 8.19 18.5967 9.23667C17.6611 10.2833 16.4993 10.8896 15.1111 11.0556C14.7778 11.9074 14.2548 12.6159 13.5422 13.1811C12.8296 13.7463 12.0193 14.1304 11.1111 14.3333V17.7778H15.5556V20H4.44444ZM4.44444 8.66667V4.44444H2.22222V5.55556C2.22222 6.25926 2.42593 6.8937 2.83333 7.45889C3.24074 8.02407 3.77778 8.42667 4.44444 8.66667ZM15.5556 8.66667C16.2222 8.42593 16.7593 8.02296 17.1667 7.45778C17.5741 6.89259 17.7778 6.25852 17.7778 5.55556V4.44444H15.5556V8.66667Z" fill="#FFDA16"/>
</svg>
