<svg width="20" height="20" viewBox="0 0 20 20" fill="none" xmlns="http://www.w3.org/2000/svg">
<path d="M10.354 2.14601C10.3076 2.09945 10.2524 2.0625 10.1916 2.0373C10.1309 2.01209 10.0658 1.99911 10 1.99911C9.93423 1.99911 9.86911 2.01209 9.80837 2.0373C9.74762 2.0625 9.69245 2.09945 9.646 2.14601L5.146 6.64601C5.09951 6.6925 5.06264 6.74769 5.03748 6.80842C5.01232 6.86916 4.99937 6.93426 4.99937 7.00001C4.99937 7.06575 5.01232 7.13085 5.03748 7.19159C5.06264 7.25233 5.09951 7.30752 5.146 7.35401C5.19249 7.4005 5.24768 7.43737 5.30842 7.46253C5.36916 7.48769 5.43426 7.50064 5.5 7.50064C5.56574 7.50064 5.63084 7.48769 5.69158 7.46253C5.75232 7.43737 5.80751 7.4005 5.854 7.35401L9.5 3.70701V12.5C9.5 12.6326 9.55268 12.7598 9.64645 12.8536C9.74021 12.9473 9.86739 13 10 13C10.1326 13 10.2598 12.9473 10.3536 12.8536C10.4473 12.7598 10.5 12.6326 10.5 12.5V3.70701L14.146 7.35401C14.2399 7.4479 14.3672 7.50064 14.5 7.50064C14.6328 7.50064 14.7601 7.4479 14.854 7.35401C14.9479 7.26012 15.0006 7.13278 15.0006 7.00001C15.0006 6.86723 14.9479 6.7399 14.854 6.64601L10.354 2.14601ZM4 9.50001C4 9.3674 3.94732 9.24022 3.85355 9.14645C3.75979 9.05269 3.63261 9.00001 3.5 9.00001C3.36739 9.00001 3.24021 9.05269 3.14645 9.14645C3.05268 9.24022 3 9.3674 3 9.50001V14C3 14.7957 3.31607 15.5587 3.87868 16.1213C4.44129 16.6839 5.20435 17 6 17H14C14.7956 17 15.5587 16.6839 16.1213 16.1213C16.6839 15.5587 17 14.7957 17 14V9.50001C17 9.3674 16.9473 9.24022 16.8536 9.14645C16.7598 9.05269 16.6326 9.00001 16.5 9.00001C16.3674 9.00001 16.2402 9.05269 16.1464 9.14645C16.0527 9.24022 16 9.3674 16 9.50001V14C16 14.5304 15.7893 15.0391 15.4142 15.4142C15.0391 15.7893 14.5304 16 14 16H6C5.46957 16 4.96086 15.7893 4.58579 15.4142C4.21071 15.0391 4 14.5304 4 14V9.50001Z" fill="#2A2A2A"/>
</svg>
