<svg width="14" height="16" viewBox="0 0 14 16" fill="none" xmlns="http://www.w3.org/2000/svg">
<path d="M7.354 0.646466C7.30755 0.599903 7.25238 0.562961 7.19163 0.537754C7.13089 0.512548 7.06577 0.499573 7 0.499573C6.93423 0.499573 6.86911 0.512548 6.80837 0.537754C6.74762 0.562961 6.69245 0.599903 6.646 0.646466L2.146 5.14647C2.09951 5.19295 2.06264 5.24814 2.03748 5.30888C2.01232 5.36962 1.99937 5.43472 1.99937 5.50047C1.99937 5.56621 2.01232 5.63131 2.03748 5.69205C2.06264 5.75279 2.09951 5.80798 2.146 5.85447C2.19249 5.90095 2.24768 5.93783 2.30842 5.96299C2.36916 5.98815 2.43426 6.0011 2.5 6.0011C2.56574 6.0011 2.63084 5.98815 2.69158 5.96299C2.75232 5.93783 2.80751 5.90095 2.854 5.85447L6.5 2.20747V11.0005C6.5 11.1331 6.55268 11.2603 6.64645 11.354C6.74021 11.4478 6.86739 11.5005 7 11.5005C7.13261 11.5005 7.25979 11.4478 7.35355 11.354C7.44732 11.2603 7.5 11.1331 7.5 11.0005V2.20747L11.146 5.85447C11.2399 5.94835 11.3672 6.0011 11.5 6.0011C11.6328 6.0011 11.7601 5.94835 11.854 5.85447C11.9479 5.76058 12.0006 5.63324 12.0006 5.50047C12.0006 5.36769 11.9479 5.24035 11.854 5.14647L7.354 0.646466ZM1 8.00047C1 7.86786 0.947321 7.74068 0.853553 7.64691C0.759785 7.55314 0.632608 7.50047 0.5 7.50047C0.367392 7.50047 0.240215 7.55314 0.146447 7.64691C0.0526785 7.74068 0 7.86786 0 8.00047V12.5005C0 13.2961 0.316071 14.0592 0.87868 14.6218C1.44129 15.1844 2.20435 15.5005 3 15.5005H11C11.7956 15.5005 12.5587 15.1844 13.1213 14.6218C13.6839 14.0592 14 13.2961 14 12.5005V8.00047C14 7.86786 13.9473 7.74068 13.8536 7.64691C13.7598 7.55314 13.6326 7.50047 13.5 7.50047C13.3674 7.50047 13.2402 7.55314 13.1464 7.64691C13.0527 7.74068 13 7.86786 13 8.00047V12.5005C13 13.0309 12.7893 13.5396 12.4142 13.9147C12.0391 14.2898 11.5304 14.5005 11 14.5005H3C2.46957 14.5005 1.96086 14.2898 1.58579 13.9147C1.21071 13.5396 1 13.0309 1 12.5005V8.00047Z" fill="white"/>
</svg>
