<svg width="377" height="244" viewBox="0 0 377 244" fill="none" xmlns="http://www.w3.org/2000/svg">
<path d="M234.278 200.207L234.553 203.619C234.722 205.707 238.374 207.381 242.926 207.457L250.582 207.585L242.926 207.714C238.374 207.79 234.722 209.464 234.553 211.551L234.278 214.963L234.002 211.551C233.833 209.464 230.181 207.79 225.63 207.714L217.973 207.585L225.63 207.457C230.181 207.381 233.833 205.707 234.002 203.619L234.278 200.207Z" fill="white"/>
<g filter="url(#filter0_f_542_2019)">
<path d="M233.65 200.207L233.767 203.619C233.838 205.707 235.384 207.381 237.309 207.457L240.548 207.585L237.309 207.714C235.384 207.79 233.838 209.464 233.767 211.551L233.65 214.963L233.534 211.551C233.462 209.464 231.917 207.79 229.992 207.714L226.752 207.585L229.992 207.457C231.917 207.381 233.462 205.707 233.534 203.619L233.65 200.207Z" fill="white"/>
</g>
<path d="M332.104 119.049L332.379 122.461C332.548 124.548 336.2 126.222 340.751 126.298L348.408 126.427L340.751 126.555C336.2 126.631 332.548 128.306 332.379 130.393L332.104 133.805L331.828 130.393C331.659 128.306 328.007 126.631 323.456 126.555L315.799 126.427L323.456 126.298C328.007 126.222 331.659 124.548 331.828 122.461L332.104 119.049Z" fill="white"/>
<g filter="url(#filter1_f_542_2019)">
<path d="M331.477 119.049L331.593 122.461C331.665 124.548 333.21 126.222 335.135 126.298L338.375 126.427L335.135 126.555C333.21 126.631 331.665 128.306 331.593 130.393L331.477 133.805L331.36 130.393C331.289 128.306 329.744 126.631 327.818 126.555L324.579 126.427L327.818 126.298C329.744 126.222 331.289 124.548 331.36 122.461L331.477 119.049Z" fill="white"/>
</g>
<g filter="url(#filter2_f_542_2019)">
<path d="M138.333 30.5122L138.449 33.9241C138.521 36.0116 140.066 37.6856 141.991 37.7619L145.231 37.8903L141.991 38.0186C140.066 38.0949 138.521 39.769 138.449 41.8564L138.333 45.2683L138.216 41.8564C138.145 39.769 136.6 38.0949 134.674 38.0186L131.435 37.8903L134.674 37.7619C136.6 37.6856 138.145 36.0116 138.216 33.9241L138.333 30.5122Z" fill="white"/>
</g>
<g filter="url(#filter3_f_542_2019)">
<path d="M308.901 70.3536L309.018 73.7656C309.089 75.853 310.634 77.527 312.56 77.6033L315.799 77.7317L312.56 77.86C310.634 77.9363 309.089 79.6104 309.018 81.6978L308.901 85.1097L308.785 81.6978C308.713 79.6104 307.168 77.9363 305.242 77.86L302.003 77.7317L305.242 77.6033C307.168 77.527 308.713 75.853 308.785 73.7656L308.901 70.3536Z" fill="white"/>
</g>
<g filter="url(#filter4_f_542_2019)">
<path d="M369.102 170.695L369.219 174.107C369.29 176.194 370.835 177.869 372.761 177.945L376 178.073L372.761 178.202C370.835 178.278 369.29 179.952 369.219 182.039L369.102 185.451L368.985 182.039C368.914 179.952 367.369 178.278 365.443 178.202L362.204 178.073L365.443 177.945C367.369 177.869 368.914 176.194 368.985 174.107L369.102 170.695Z" fill="white"/>
</g>
<g filter="url(#filter5_f_542_2019)">
<path d="M361.577 36.4146L361.694 39.8265C361.765 41.914 363.31 43.588 365.236 43.6643L368.475 43.7927L365.236 43.921C363.31 43.9973 361.765 45.6714 361.694 47.7588L361.577 51.1707L361.46 47.7588C361.389 45.6714 359.844 43.9973 357.918 43.921L354.679 43.7927L357.918 43.6643C359.844 43.588 361.389 41.914 361.46 39.8265L361.577 36.4146Z" fill="white"/>
</g>
<g filter="url(#filter6_f_542_2019)">
<path d="M7.89799 43.7927L8.01464 47.2046C8.08601 49.292 9.63107 50.9661 11.5567 51.0424L14.796 51.1707L11.5567 51.2991C9.63107 51.3754 8.08601 53.0494 8.01464 55.1368L7.89799 58.5488L7.78134 55.1368C7.70998 53.0494 6.16492 51.3754 4.23931 51.2991L1 51.1707L4.23931 51.0424C6.16492 50.9661 7.70998 49.292 7.78134 47.2046L7.89799 43.7927Z" fill="white"/>
</g>
<g filter="url(#filter7_f_542_2019)">
<path d="M7.89799 192.829L8.01464 196.241C8.08601 198.329 9.63107 200.003 11.5567 200.079L14.796 200.207L11.5567 200.336C9.63107 200.412 8.08601 202.086 8.01464 204.173L7.89799 207.585L7.78134 204.173C7.70998 202.086 6.16492 200.412 4.23931 200.336L1 200.207L4.23931 200.079C6.16492 200.003 7.70998 198.329 7.78134 196.241L7.89799 192.829Z" fill="white"/>
</g>
<g filter="url(#filter8_f_542_2019)">
<path d="M118.266 155.939L118.383 159.351C118.454 161.438 119.999 163.112 121.925 163.189L125.164 163.317L121.925 163.445C119.999 163.522 118.454 165.196 118.383 167.283L118.266 170.695L118.149 167.283C118.078 165.196 116.533 163.522 114.607 163.445L111.368 163.317L114.607 163.189C116.533 163.112 118.078 161.438 118.149 159.351L118.266 155.939Z" fill="white"/>
</g>
<g filter="url(#filter9_f_542_2019)">
<path d="M249.955 11.3293L250.072 14.7412C250.143 16.8286 251.688 18.5027 253.614 18.579L256.853 18.7073L253.614 18.8357C251.688 18.912 250.143 20.586 250.072 22.6734L249.955 26.0854L249.838 22.6734C249.767 20.586 248.222 18.912 246.296 18.8357L243.057 18.7073L246.296 18.579C248.222 18.5027 249.767 16.8286 249.838 14.7412L249.955 11.3293Z" fill="white"/>
</g>
<g filter="url(#filter10_f_542_2019)">
<g filter="url(#filter11_f_542_2019)">
<path d="M69.3528 43.7927L69.4695 47.2046C69.5408 49.292 71.0859 50.9661 73.0115 51.0424L76.2508 51.1707L73.0115 51.2991C71.0859 51.3754 69.5408 53.0494 69.4695 55.1368L69.3528 58.5488L69.2362 55.1368C69.1648 53.0494 67.6198 51.3754 65.6941 51.2991L62.4548 51.1707L65.6941 51.0424C67.6198 50.9661 69.1648 49.292 69.2362 47.2046L69.3528 43.7927Z" fill="white"/>
</g>
</g>
<g filter="url(#filter12_f_542_2019)">
<g filter="url(#filter13_f_542_2019)">
<path d="M361.577 99.8658L361.694 103.278C361.765 105.365 363.31 107.039 365.236 107.116L368.475 107.244L365.236 107.372C363.31 107.449 361.765 109.123 361.694 111.21L361.577 114.622L361.46 111.21C361.389 109.123 359.844 107.449 357.918 107.372L354.679 107.244L357.918 107.116C359.844 107.039 361.389 105.365 361.46 103.278L361.577 99.8658Z" fill="white"/>
</g>
</g>
<g filter="url(#filter14_f_542_2019)">
<path d="M94.4366 213.488L94.5532 220.312C94.6246 224.486 96.1696 227.835 98.0952 227.987L101.335 228.244L98.0952 228.501C96.1696 228.653 94.6246 232.001 94.5532 236.176L94.4366 243L94.3199 236.176C94.2486 232.001 92.7035 228.653 90.7779 228.501L87.5386 228.244L90.7779 227.987C92.7035 227.835 94.2486 224.486 94.3199 220.312L94.4366 213.488Z" fill="white"/>
</g>
<path d="M53.0484 1L53.2075 6.04966C53.3048 9.13903 55.4117 11.6166 58.0376 11.7296L62.4548 11.9195L58.0376 12.1095C55.4117 12.2224 53.3048 14.7 53.2075 17.7894L53.0484 22.839L52.8894 17.7894C52.7921 14.7 50.6852 12.2224 48.0593 12.1095L43.6421 11.9195L48.0593 11.7296C50.6852 11.6166 52.7921 9.13903 52.8894 6.04966L53.0484 1Z" fill="white"/>
<g filter="url(#filter15_f_542_2019)">
<path d="M320.189 1L320.306 7.82387C320.377 11.9987 321.922 15.3468 323.848 15.4994L327.087 15.7561L323.848 16.0128C321.922 16.1654 320.377 19.5135 320.306 23.6883L320.189 30.5122L320.072 23.6883C320.001 19.5135 318.456 16.1654 316.53 16.0128L313.291 15.7561L316.53 15.4994C318.456 15.3468 320.001 11.9987 320.072 7.82387L320.189 1Z" fill="white"/>
</g>
<g filter="url(#filter16_f_542_2019)">
<path d="M34.2357 114.622L34.3948 119.672C34.4921 122.761 36.599 125.239 39.2248 125.352L43.6421 125.541L39.2248 125.731C36.599 125.844 34.4921 128.322 34.3948 131.411L34.2357 136.461L34.0766 131.411C33.9793 128.322 31.8724 125.844 29.2466 125.731L24.8293 125.541L29.2466 125.352C31.8724 125.239 33.9793 122.761 34.0766 119.672L34.2357 114.622Z" fill="white"/>
</g>
<path d="M327.714 185.451L327.831 192.275C327.902 196.45 329.447 199.798 331.373 199.951L334.612 200.207L331.373 200.464C329.447 200.617 327.902 203.965 327.831 208.14L327.714 214.963L327.597 208.14C327.526 203.965 325.981 200.617 324.055 200.464L320.816 200.207L324.055 199.951C325.981 199.798 327.526 196.45 327.597 192.275L327.714 185.451Z" fill="white"/>
<g filter="url(#filter17_f_542_2019)">
<g filter="url(#filter18_f_542_2019)">
<path d="M63.0818 200.207L63.1985 203.619C63.2698 205.707 64.8149 207.381 66.7405 207.457L69.9798 207.585L66.7405 207.714C64.8149 207.79 63.2698 209.464 63.1985 211.551L63.0818 214.963L62.9652 211.551C62.8938 209.464 61.3488 207.79 59.4232 207.714L56.1838 207.585L59.4231 207.457C61.3488 207.381 62.8938 205.707 62.9652 203.619L63.0818 200.207Z" fill="white"/>
</g>
</g>
<g filter="url(#filter19_f_542_2019)">
<g filter="url(#filter20_f_542_2019)">
<path d="M301.376 163.317L301.493 166.729C301.564 168.816 303.109 170.49 305.035 170.567L308.274 170.695L305.035 170.823C303.109 170.9 301.564 172.574 301.493 174.661L301.376 178.073L301.26 174.661C301.188 172.574 299.643 170.9 297.718 170.823L294.478 170.695L297.718 170.567C299.643 170.49 301.188 168.816 301.26 166.729L301.376 163.317Z" fill="white"/>
</g>
</g>
<defs>
<filter id="filter0_f_542_2019" x="225.752" y="199.207" width="15.7959" height="16.7561" filterUnits="userSpaceOnUse" color-interpolation-filters="sRGB">
<feFlood flood-opacity="0" result="BackgroundImageFix"/>
<feBlend mode="normal" in="SourceGraphic" in2="BackgroundImageFix" result="shape"/>
<feGaussianBlur stdDeviation="0.5" result="effect1_foregroundBlur_542_2019"/>
</filter>
<filter id="filter1_f_542_2019" x="323.579" y="118.049" width="15.7959" height="16.7561" filterUnits="userSpaceOnUse" color-interpolation-filters="sRGB">
<feFlood flood-opacity="0" result="BackgroundImageFix"/>
<feBlend mode="normal" in="SourceGraphic" in2="BackgroundImageFix" result="shape"/>
<feGaussianBlur stdDeviation="0.5" result="effect1_foregroundBlur_542_2019"/>
</filter>
<filter id="filter2_f_542_2019" x="130.435" y="29.5122" width="15.7959" height="16.7561" filterUnits="userSpaceOnUse" color-interpolation-filters="sRGB">
<feFlood flood-opacity="0" result="BackgroundImageFix"/>
<feBlend mode="normal" in="SourceGraphic" in2="BackgroundImageFix" result="shape"/>
<feGaussianBlur stdDeviation="0.5" result="effect1_foregroundBlur_542_2019"/>
</filter>
<filter id="filter3_f_542_2019" x="301.003" y="69.3536" width="15.7959" height="16.7561" filterUnits="userSpaceOnUse" color-interpolation-filters="sRGB">
<feFlood flood-opacity="0" result="BackgroundImageFix"/>
<feBlend mode="normal" in="SourceGraphic" in2="BackgroundImageFix" result="shape"/>
<feGaussianBlur stdDeviation="0.5" result="effect1_foregroundBlur_542_2019"/>
</filter>
<filter id="filter4_f_542_2019" x="361.204" y="169.695" width="15.7959" height="16.7561" filterUnits="userSpaceOnUse" color-interpolation-filters="sRGB">
<feFlood flood-opacity="0" result="BackgroundImageFix"/>
<feBlend mode="normal" in="SourceGraphic" in2="BackgroundImageFix" result="shape"/>
<feGaussianBlur stdDeviation="0.5" result="effect1_foregroundBlur_542_2019"/>
</filter>
<filter id="filter5_f_542_2019" x="353.679" y="35.4146" width="15.7959" height="16.7561" filterUnits="userSpaceOnUse" color-interpolation-filters="sRGB">
<feFlood flood-opacity="0" result="BackgroundImageFix"/>
<feBlend mode="normal" in="SourceGraphic" in2="BackgroundImageFix" result="shape"/>
<feGaussianBlur stdDeviation="0.5" result="effect1_foregroundBlur_542_2019"/>
</filter>
<filter id="filter6_f_542_2019" x="0" y="42.7927" width="15.7959" height="16.7561" filterUnits="userSpaceOnUse" color-interpolation-filters="sRGB">
<feFlood flood-opacity="0" result="BackgroundImageFix"/>
<feBlend mode="normal" in="SourceGraphic" in2="BackgroundImageFix" result="shape"/>
<feGaussianBlur stdDeviation="0.5" result="effect1_foregroundBlur_542_2019"/>
</filter>
<filter id="filter7_f_542_2019" x="0" y="191.829" width="15.7959" height="16.7561" filterUnits="userSpaceOnUse" color-interpolation-filters="sRGB">
<feFlood flood-opacity="0" result="BackgroundImageFix"/>
<feBlend mode="normal" in="SourceGraphic" in2="BackgroundImageFix" result="shape"/>
<feGaussianBlur stdDeviation="0.5" result="effect1_foregroundBlur_542_2019"/>
</filter>
<filter id="filter8_f_542_2019" x="110.368" y="154.939" width="15.7959" height="16.7561" filterUnits="userSpaceOnUse" color-interpolation-filters="sRGB">
<feFlood flood-opacity="0" result="BackgroundImageFix"/>
<feBlend mode="normal" in="SourceGraphic" in2="BackgroundImageFix" result="shape"/>
<feGaussianBlur stdDeviation="0.5" result="effect1_foregroundBlur_542_2019"/>
</filter>
<filter id="filter9_f_542_2019" x="242.057" y="10.3293" width="15.7959" height="16.7561" filterUnits="userSpaceOnUse" color-interpolation-filters="sRGB">
<feFlood flood-opacity="0" result="BackgroundImageFix"/>
<feBlend mode="normal" in="SourceGraphic" in2="BackgroundImageFix" result="shape"/>
<feGaussianBlur stdDeviation="0.5" result="effect1_foregroundBlur_542_2019"/>
</filter>
<filter id="filter10_f_542_2019" x="58.4548" y="39.7927" width="21.7959" height="22.7561" filterUnits="userSpaceOnUse" color-interpolation-filters="sRGB">
<feFlood flood-opacity="0" result="BackgroundImageFix"/>
<feBlend mode="normal" in="SourceGraphic" in2="BackgroundImageFix" result="shape"/>
<feGaussianBlur stdDeviation="2" result="effect1_foregroundBlur_542_2019"/>
</filter>
<filter id="filter11_f_542_2019" x="61.4548" y="42.7927" width="15.7959" height="16.7561" filterUnits="userSpaceOnUse" color-interpolation-filters="sRGB">
<feFlood flood-opacity="0" result="BackgroundImageFix"/>
<feBlend mode="normal" in="SourceGraphic" in2="BackgroundImageFix" result="shape"/>
<feGaussianBlur stdDeviation="0.5" result="effect1_foregroundBlur_542_2019"/>
</filter>
<filter id="filter12_f_542_2019" x="350.679" y="95.8658" width="21.7959" height="22.7561" filterUnits="userSpaceOnUse" color-interpolation-filters="sRGB">
<feFlood flood-opacity="0" result="BackgroundImageFix"/>
<feBlend mode="normal" in="SourceGraphic" in2="BackgroundImageFix" result="shape"/>
<feGaussianBlur stdDeviation="2" result="effect1_foregroundBlur_542_2019"/>
</filter>
<filter id="filter13_f_542_2019" x="353.679" y="98.8658" width="15.7959" height="16.7561" filterUnits="userSpaceOnUse" color-interpolation-filters="sRGB">
<feFlood flood-opacity="0" result="BackgroundImageFix"/>
<feBlend mode="normal" in="SourceGraphic" in2="BackgroundImageFix" result="shape"/>
<feGaussianBlur stdDeviation="0.5" result="effect1_foregroundBlur_542_2019"/>
</filter>
<filter id="filter14_f_542_2019" x="86.5386" y="212.488" width="15.7959" height="31.5122" filterUnits="userSpaceOnUse" color-interpolation-filters="sRGB">
<feFlood flood-opacity="0" result="BackgroundImageFix"/>
<feBlend mode="normal" in="SourceGraphic" in2="BackgroundImageFix" result="shape"/>
<feGaussianBlur stdDeviation="0.5" result="effect1_foregroundBlur_542_2019"/>
</filter>
<filter id="filter15_f_542_2019" x="312.291" y="0" width="15.7959" height="31.5122" filterUnits="userSpaceOnUse" color-interpolation-filters="sRGB">
<feFlood flood-opacity="0" result="BackgroundImageFix"/>
<feBlend mode="normal" in="SourceGraphic" in2="BackgroundImageFix" result="shape"/>
<feGaussianBlur stdDeviation="0.5" result="effect1_foregroundBlur_542_2019"/>
</filter>
<filter id="filter16_f_542_2019" x="22.8293" y="112.622" width="22.8127" height="25.8391" filterUnits="userSpaceOnUse" color-interpolation-filters="sRGB">
<feFlood flood-opacity="0" result="BackgroundImageFix"/>
<feBlend mode="normal" in="SourceGraphic" in2="BackgroundImageFix" result="shape"/>
<feGaussianBlur stdDeviation="1" result="effect1_foregroundBlur_542_2019"/>
</filter>
<filter id="filter17_f_542_2019" x="52.1838" y="196.207" width="21.7959" height="22.7561" filterUnits="userSpaceOnUse" color-interpolation-filters="sRGB">
<feFlood flood-opacity="0" result="BackgroundImageFix"/>
<feBlend mode="normal" in="SourceGraphic" in2="BackgroundImageFix" result="shape"/>
<feGaussianBlur stdDeviation="2" result="effect1_foregroundBlur_542_2019"/>
</filter>
<filter id="filter18_f_542_2019" x="55.1838" y="199.207" width="15.7959" height="16.7561" filterUnits="userSpaceOnUse" color-interpolation-filters="sRGB">
<feFlood flood-opacity="0" result="BackgroundImageFix"/>
<feBlend mode="normal" in="SourceGraphic" in2="BackgroundImageFix" result="shape"/>
<feGaussianBlur stdDeviation="0.5" result="effect1_foregroundBlur_542_2019"/>
</filter>
<filter id="filter19_f_542_2019" x="290.478" y="159.317" width="21.7959" height="22.7561" filterUnits="userSpaceOnUse" color-interpolation-filters="sRGB">
<feFlood flood-opacity="0" result="BackgroundImageFix"/>
<feBlend mode="normal" in="SourceGraphic" in2="BackgroundImageFix" result="shape"/>
<feGaussianBlur stdDeviation="2" result="effect1_foregroundBlur_542_2019"/>
</filter>
<filter id="filter20_f_542_2019" x="293.478" y="162.317" width="15.7959" height="16.7561" filterUnits="userSpaceOnUse" color-interpolation-filters="sRGB">
<feFlood flood-opacity="0" result="BackgroundImageFix"/>
<feBlend mode="normal" in="SourceGraphic" in2="BackgroundImageFix" result="shape"/>
<feGaussianBlur stdDeviation="0.5" result="effect1_foregroundBlur_542_2019"/>
</filter>
</defs>
</svg>
